# Blender v2.79 (sub 0) OBJ File: ''
# www.blender.org
mtllib current.mtl
o rail_part
v 0.000000 0.321394 -0.060107
v 0.000000 -0.186606 -0.314107
v 0.000000 -0.186606 -0.060107
v 9.143999 -0.186606 -0.314107
v 9.143999 -0.186606 -0.060107
v 9.143999 0.321394 -0.060107
v 9.143999 0.321394 -0.314107
v 0.000000 0.321394 -0.314107
v 12.192000 0.321394 0.193893
v 12.192000 -0.186606 -0.060107
v 12.192000 -0.186606 0.193893
v 21.336000 -0.186606 -0.060107
v 21.336000 -0.186606 0.193893
v 21.336000 0.321394 0.193893
v 21.336000 0.321394 -0.060107
v 12.192000 0.321394 -0.060107
v 21.336000 -0.186606 -0.314107
v 21.336000 0.321394 -0.314107
v 0.000000 0.321394 0.193893
v 0.000000 -0.186606 0.193893
vn -1.0000 0.0000 0.0000
vn 0.0000 -1.0000 0.0000
vn 0.0000 0.0000 1.0000
vn 1.0000 0.0000 0.0000
vn 0.0000 1.0000 0.0000
vn 0.0000 0.0000 -1.0000
usemtl None
s off
f 1//1 2//1 3//1
f 2//2 4//2 3//2
f 4//2 5//2 3//2
f 5//3 6//3 3//3
f 6//3 1//3 3//3
f 4//4 7//4 5//4
f 7//4 6//4 5//4
f 8//1 2//1 1//1
f 6//5 8//5 1//5
f 7//5 8//5 6//5
f 8//6 4//6 2//6
f 8//6 7//6 4//6
f 9//1 10//1 11//1
f 10//2 12//2 11//2
f 12//2 13//2 11//2
f 13//3 14//3 11//3
f 14//3 9//3 11//3
f 12//4 15//4 13//4
f 15//4 14//4 13//4
f 16//1 10//1 9//1
f 14//5 16//5 9//5
f 15//5 16//5 14//5
f 16//6 12//6 10//6
f 16//6 15//6 12//6
f 4//2 17//2 5//2
f 17//2 12//2 5//2
f 6//1 4//1 5//1
f 15//3 6//3 5//3
f 12//3 15//3 5//3
f 17//4 18//4 12//4
f 18//4 15//4 12//4
f 7//1 4//1 6//1
f 15//5 7//5 6//5
f 18//5 7//5 15//5
f 7//6 17//6 4//6
f 7//6 18//6 17//6
f 19//1 3//1 20//1
f 3//2 10//2 20//2
f 10//2 11//2 20//2
f 11//3 9//3 20//3
f 9//3 19//3 20//3
f 10//4 16//4 11//4
f 16//4 9//4 11//4
f 1//1 3//1 19//1
f 9//5 1//5 19//5
f 16//5 1//5 9//5
f 1//6 10//6 3//6
f 1//6 16//6 10//6
